<svg width="12" height="8" viewBox="0 0 12 8" fill="none" xmlns="http://www.w3.org/2000/svg">
<path id="Vector" d="M5.57512 7.4001C5.44179 7.4001 5.31279 7.3751 5.18812 7.3251C5.06279 7.2751 4.95846 7.20843 4.87512 7.1251L0.275122 2.5251C0.0917884 2.34176 0.00012207 2.10843 0.00012207 1.8251C0.00012207 1.54176 0.0917884 1.30843 0.275122 1.1251C0.458455 0.941764 0.691789 0.850098 0.975122 0.850098C1.25846 0.850098 1.49179 0.941764 1.67512 1.1251L5.57512 5.0251L9.47512 1.1251C9.65845 0.941764 9.89179 0.850098 10.1751 0.850098C10.4585 0.850098 10.6918 0.941764 10.8751 1.1251C11.0585 1.30843 11.1501 1.54176 11.1501 1.8251C11.1501 2.10843 11.0585 2.34176 10.8751 2.5251L6.27512 7.1251C6.17512 7.2251 6.06679 7.29576 5.95012 7.3371C5.83346 7.3791 5.70846 7.4001 5.57512 7.4001Z" fill="#5A616A"/>
</svg>
